STARTFONT 2.1
COMMENT  
COMMENT  Copyright 1994 by OMRON Corporation
COMMENT  
COMMENT  Permission to use, copy, modify, and distribute this software and 
COMMENT  its documentation for any purpose and without fee is hereby granted, 
COMMENT  provided that the above copyright notices appear in all copies and 
COMMENT  that both those copyright notices and this permission notice appear 
COMMENT  in supporting documentation, and that the name of OMRON Corporation 
COMMENT  not be used in advertising or publicity pertaining to distribution 
COMMENT  of the software without specific, written prior permission.  OMRON 
COMMENT  Corporation make no representations about the suitability of this 
COMMENT  software for any purpose.  It is provided "as is" without express or 
COMMENT  implied warranty. 
COMMENT  
COMMENT  OMRON CORPORATION DISCLAIM ALL WARRANTIES WITH REGARD TO THIS 
COMMENT  SOFTWARE, INCLUDING ALL IMPLIED WARRANTIES OF MERCHANTABILITY AND 
COMMENT  FITNESS, IN NO EVENT SHALL SUN MICROSYSTEMS BE LIABLE FOR ANY 
COMMENT  SPECIAL, INDIRECT OR CONSEQUENTIAL DAMAGES OR ANY DAMAGES WHATSOEVER 
COMMENT  RESULTING FROM LOSS OF USE, DATA OR PROFITS, WHETHER IN AN ACTION OF 
COMMENT  CONTRACT, NEGLIGENCE OR OTHER TORTIOUS ACTION, ARISING OUT OF OR IN 
COMMENT  CONNECTION WITH THE USE OR PERFORMANCE OF THIS SOFTWARE. 
COMMENT  
COMMENT 8x18 SiSheng font, cWnn internal use only
COMMENT
FONT -Omron-Fixed-Medium-R-Normal--18-130-100-100-C-80-OMRON_UDC_ZH-0
SIZE 13 100 100
FONTBOUNDINGBOX 8 18 0 2
STARTPROPERTIES 19
FONTNAME_REGISTRY ""
FOUNDRY "Omron"
FAMILY_NAME "Fixed"
WEIGHT_NAME "Medium"
SLANT "R"
SETWIDTH_NAME "Normal"
ADD_STYLE_NAME ""
PIXEL_SIZE 18
POINT_SIZE 120
RESOLUTION_X 100
RESOLUTION_Y 100
SPACING "C"
AVERAGE_WIDTH 80
CHARSET_REGISTRY "OMRON_UDC_ZH"
CHARSET_ENCODING "0"
DEFAULT_CHAR 32
FONT_ASCENT 16
FONT_DESCENT 2
COPYRIGHT "Copyright 1994 by OMRON Corporation"
ENDPROPERTIES
CHARS 74
STARTCHAR 0020
ENCODING 32
SWIDTH 443 0
DWIDTH 8 0
BBX 8 18 0 -2
BITMAP
00
00
00
00
00
00
00
00
00
00
00
00
00
00
00
00
00
00
ENDCHAR
STARTCHAR 0021
ENCODING 33
SWIDTH 443 0
DWIDTH 8 0
BBX 8 18 0 -2
BITMAP
00
00
00
00
00
38
00
00
38
44
04
3c
44
44
44
3a
00
00
ENDCHAR
STARTCHAR 0022
ENCODING 34
SWIDTH 443 0
DWIDTH 8 0
BBX 8 18 0 -2
BITMAP
00
00
00
00
18
10
20
00
38
44
04
3c
44
44
44
3a
00
00
ENDCHAR
STARTCHAR 0023
ENCODING 35
SWIDTH 443 0
DWIDTH 8 0
BBX 8 18 0 -2
BITMAP
00
00
00
00
44
28
10
00
38
44
04
3c
44
44
44
3a
00
00
ENDCHAR
STARTCHAR 0024
ENCODING 36
SWIDTH 443 0
DWIDTH 8 0
BBX 8 18 0 -2
BITMAP
00
00
00
00
30
10
08
00
38
44
04
3c
44
44
44
3a
00
00
ENDCHAR
STARTCHAR 0025
ENCODING 37
SWIDTH 443 0
DWIDTH 8 0
BBX 8 18 0 -2
BITMAP
00
00
00
00
00
38
00
00
38
44
44
7c
40
40
44
38
00
00
ENDCHAR
STARTCHAR 0026
ENCODING 38
SWIDTH 443 0
DWIDTH 8 0
BBX 8 18 0 -2
BITMAP
00
00
00
00
18
10
20
00
38
44
44
7c
40
40
44
38
00
00
ENDCHAR
STARTCHAR 0027
ENCODING 39
SWIDTH 443 0
DWIDTH 8 0
BBX 8 18 0 -2
BITMAP
00
00
00
00
44
28
10
00
38
44
44
7c
40
40
44
38
00
00
ENDCHAR
STARTCHAR 0028
ENCODING 40
SWIDTH 443 0
DWIDTH 8 0
BBX 8 18 0 -2
BITMAP
00
00
00
00
30
10
08
00
38
44
44
7c
40
40
44
38
00
00
ENDCHAR
STARTCHAR 0029
ENCODING 41
SWIDTH 443 0
DWIDTH 8 0
BBX 8 18 0 -2
BITMAP
00
00
00
00
00
38
00
00
30
10
10
10
10
10
10
38
00
00
ENDCHAR
STARTCHAR 002a
ENCODING 42
SWIDTH 443 0
DWIDTH 8 0
BBX 8 18 0 -2
BITMAP
00
00
00
00
18
10
20
00
30
10
10
10
10
10
10
38
00
00
ENDCHAR
STARTCHAR 002b
ENCODING 43
SWIDTH 443 0
DWIDTH 8 0
BBX 8 18 0 -2
BITMAP
00
00
00
00
44
28
10
00
30
10
10
10
10
10
10
38
00
00
ENDCHAR
STARTCHAR 002c
ENCODING 44
SWIDTH 443 0
DWIDTH 8 0
BBX 8 18 0 -2
BITMAP
00
00
00
00
30
10
08
00
30
10
10
10
10
10
10
38
00
00
ENDCHAR
STARTCHAR 002d
ENCODING 45
SWIDTH 443 0
DWIDTH 8 0
BBX 8 18 0 -2
BITMAP
00
00
00
00
00
38
00
00
38
44
44
44
44
44
44
38
00
00
ENDCHAR
STARTCHAR 002e
ENCODING 46
SWIDTH 443 0
DWIDTH 8 0
BBX 8 18 0 -2
BITMAP
00
00
00
00
18
10
20
00
38
44
44
44
44
44
44
38
00
00
ENDCHAR
STARTCHAR 002f
ENCODING 47
SWIDTH 443 0
DWIDTH 8 0
BBX 8 18 0 -2
BITMAP
00
00
00
00
44
28
10
00
38
44
44
44
44
44
44
38
00
00
ENDCHAR
STARTCHAR 0030
ENCODING 48
SWIDTH 443 0
DWIDTH 8 0
BBX 8 18 0 -2
BITMAP
00
00
00
00
30
10
08
00
38
44
44
44
44
44
44
38
00
00
ENDCHAR
STARTCHAR 0031
ENCODING 49
SWIDTH 443 0
DWIDTH 8 0
BBX 8 18 0 -2
BITMAP
00
00
00
00
00
38
00
00
cc
44
44
44
44
44
4c
36
00
00
ENDCHAR
STARTCHAR 0032
ENCODING 50
SWIDTH 443 0
DWIDTH 8 0
BBX 8 18 0 -2
BITMAP
00
00
00
00
18
10
20
00
cc
44
44
44
44
44
4c
36
00
00
ENDCHAR
STARTCHAR 0033
ENCODING 51
SWIDTH 443 0
DWIDTH 8 0
BBX 8 18 0 -2
BITMAP
00
00
00
00
84
28
10
00
cc
44
44
44
44
44
4c
36
00
00
ENDCHAR
STARTCHAR 0034
ENCODING 52
SWIDTH 443 0
DWIDTH 8 0
BBX 8 18 0 -2
BITMAP
00
00
00
00
30
10
08
00
cc
44
44
44
44
44
4c
36
00
00
ENDCHAR
STARTCHAR 0035
ENCODING 53
SWIDTH 443 0
DWIDTH 8 0
BBX 8 18 0 -2
BITMAP
00
00
00
00
00
38
00
00
28
00
cc
44
44
44
4c
36
00
00
ENDCHAR
STARTCHAR 0036
ENCODING 54
SWIDTH 443 0
DWIDTH 8 0
BBX 8 18 0 -2
BITMAP
00
00
00
00
18
10
20
00
28
00
cc
44
44
44
4c
36
00
00
ENDCHAR
STARTCHAR 0037
ENCODING 55
SWIDTH 443 0
DWIDTH 8 0
BBX 8 18 0 -2
BITMAP
00
00
00
00
44
28
10
00
28
00
cc
44
44
44
4c
36
00
00
ENDCHAR
STARTCHAR 0038
ENCODING 56
SWIDTH 443 0
DWIDTH 8 0
BBX 8 18 0 -2
BITMAP
00
00
00
00
30
10
08
00
28
00
cc
44
44
44
4c
36
00
00
ENDCHAR
STARTCHAR 0039
ENCODING 57
SWIDTH 443 0
DWIDTH 8 0
BBX 8 18 0 -2
BITMAP
00
00
00
00
00
00
00
00
28
00
cc
44
44
44
4c
36
00
00
ENDCHAR
STARTCHAR 003a
ENCODING 58
SWIDTH 443 0
DWIDTH 8 0
BBX 8 18 0 -2
BITMAP
00
00
00
00
10
28
44
00
38
44
44
7c
40
40
44
38
00
00
ENDCHAR
STARTCHAR 003b
ENCODING 59
SWIDTH 443 0
DWIDTH 8 0
BBX 8 18 0 -2
BITMAP
00
00
00
00
00
00
00
00
00
00
00
00
00
00
00
00
00
00
ENDCHAR
STARTCHAR 003c
ENCODING 60
SWIDTH 443 0
DWIDTH 8 0
BBX 8 18 0 -2
BITMAP
00
00
00
00
18
10
20
00
f6
49
49
49
49
49
49
db
00
00
ENDCHAR
STARTCHAR 003d
ENCODING 61
SWIDTH 443 0
DWIDTH 8 0
BBX 8 18 0 -2
BITMAP
00
00
00
00
18
10
20
00
d8
64
44
44
44
44
44
ee
00
00
ENDCHAR
STARTCHAR 003e
ENCODING 62
SWIDTH 443 0
DWIDTH 8 0
BBX 8 18 0 -2
BITMAP
00
00
00
00
44
28
10
00
d8
64
44
44
44
44
44
ee
00
00
ENDCHAR
STARTCHAR 003f
ENCODING 63
SWIDTH 443 0
DWIDTH 8 0
BBX 8 18 0 -2
BITMAP
00
00
00
00
30
10
08
00
d8
64
44
44
44
44
44
ee
00
00
ENDCHAR
STARTCHAR 0040
ENCODING 64
SWIDTH 443 0
DWIDTH 8 0
BBX 8 18 0 -2
BITMAP
00
00
00
00
00
00
00
00
00
00
00
00
00
00
00
00
00
00
ENDCHAR
STARTCHAR 0041
ENCODING 65
SWIDTH 443 0
DWIDTH 8 0
BBX 8 18 0 -2
BITMAP
00
00
00
00
00
38
00
00
00
00
00
00
00
00
00
00
00
00
ENDCHAR
STARTCHAR 0042
ENCODING 66
SWIDTH 443 0
DWIDTH 8 0
BBX 8 18 0 -2
BITMAP
00
00
00
00
18
10
20
00
00
00
00
00
00
00
00
00
00
00
ENDCHAR
STARTCHAR 0043
ENCODING 67
SWIDTH 443 0
DWIDTH 8 0
BBX 8 18 0 -2
BITMAP
00
00
00
00
44
28
10
00
00
00
00
00
00
00
00
00
00
00
ENDCHAR
STARTCHAR 0044
ENCODING 68
SWIDTH 443 0
DWIDTH 8 0
BBX 8 18 0 -2
BITMAP
00
00
00
00
30
10
08
00
00
00
00
00
00
00
00
00
00
00
ENDCHAR
STARTCHAR 0045
ENCODING 69
SWIDTH 443 0
DWIDTH 8 0
BBX 8 18 0 -2
BITMAP
00
40
40
44
fe
02
02
02
02
04
04
04
04
04
18
08
00
00
ENDCHAR
STARTCHAR 0046
ENCODING 70
SWIDTH 443 0
DWIDTH 8 0
BBX 8 18 0 -2
BITMAP
00
20
40
04
fe
04
04
48
28
18
0c
0c
12
22
42
80
00
00
ENDCHAR
STARTCHAR 0047
ENCODING 71
SWIDTH 443 0
DWIDTH 8 0
BBX 8 18 0 -2
BITMAP
00
00
84
fe
84
84
84
84
84
84
84
84
84
84
00
00
00
00
ENDCHAR
STARTCHAR 0048
ENCODING 72
SWIDTH 443 0
DWIDTH 8 0
BBX 8 18 0 -2
BITMAP
00
00
00
fc
40
40
40
40
40
40
40
40
40
7e
00
00
00
00
ENDCHAR
STARTCHAR 0049
ENCODING 73
SWIDTH 443 0
DWIDTH 8 0
BBX 8 18 0 -2
BITMAP
00
00
20
20
44
7e
04
14
14
14
24
24
24
44
4c
84
00
00
ENDCHAR
STARTCHAR 004a
ENCODING 74
SWIDTH 443 0
DWIDTH 8 0
BBX 8 18 0 -2
BITMAP
00
00
10
18
10
fe
10
10
10
20
28
44
46
fe
42
02
00
00
ENDCHAR
STARTCHAR 004b
ENCODING 75
SWIDTH 443 0
DWIDTH 8 0
BBX 8 18 0 -2
BITMAP
00
00
1c
64
04
08
08
1e
02
02
02
02
02
02
0e
04
00
00
ENDCHAR
STARTCHAR 004c
ENCODING 76
SWIDTH 443 0
DWIDTH 8 0
BBX 8 18 0 -2
BITMAP
00
08
08
28
28
28
28
28
2e
32
12
12
12
24
0c
04
00
00
ENDCHAR
STARTCHAR 004d
ENCODING 77
SWIDTH 443 0
DWIDTH 8 0
BBX 8 18 0 -2
BITMAP
00
00
0a
0a
14
14
14
28
28
28
14
14
14
0a
0a
0a
00
00
ENDCHAR
STARTCHAR 004e
ENCODING 78
SWIDTH 443 0
DWIDTH 8 0
BBX 8 18 0 -2
BITMAP
00
04
7e
10
10
20
20
3c
04
04
04
04
04
04
18
08
00
00
ENDCHAR
STARTCHAR 004f
ENCODING 79
SWIDTH 443 0
DWIDTH 8 0
BBX 8 18 0 -2
BITMAP
00
06
18
20
20
20
20
20
20
20
20
20
40
40
40
40
00
00
ENDCHAR
STARTCHAR 0050
ENCODING 80
SWIDTH 443 0
DWIDTH 8 0
BBX 8 18 0 -2
BITMAP
00
04
06
14
14
14
14
24
24
2c
74
44
04
04
04
04
00
00
ENDCHAR
STARTCHAR 0051
ENCODING 81
SWIDTH 443 0
DWIDTH 8 0
BBX 8 18 0 -2
BITMAP
00
00
04
04
08
08
08
10
10
10
08
08
08
04
04
04
00
00
ENDCHAR
STARTCHAR 0052
ENCODING 82
SWIDTH 443 0
DWIDTH 8 0
BBX 8 18 0 -2
BITMAP
00
04
fe
10
10
10
10
10
10
10
10
10
10
10
10
10
00
00
ENDCHAR
STARTCHAR 0053
ENCODING 83
SWIDTH 443 0
DWIDTH 8 0
BBX 8 18 0 -2
BITMAP
00
10
10
10
92
92
92
92
92
fe
10
10
10
10
fe
00
00
00
ENDCHAR
STARTCHAR 0054
ENCODING 84
SWIDTH 443 0
DWIDTH 8 0
BBX 8 18 0 -2
BITMAP
00
00
08
08
10
14
28
48
90
30
50
90
10
10
10
10
00
00
ENDCHAR
STARTCHAR 0055
ENCODING 85
SWIDTH 443 0
DWIDTH 8 0
BBX 8 18 0 -2
BITMAP
00
00
3e
02
02
02
3e
20
20
20
20
20
20
40
40
80
00
00
ENDCHAR
STARTCHAR 0056
ENCODING 86
SWIDTH 443 0
DWIDTH 8 0
BBX 8 18 0 -2
BITMAP
00
04
7e
44
44
44
64
54
4c
44
44
44
44
7c
44
00
00
00
ENDCHAR
STARTCHAR 0057
ENCODING 87
SWIDTH 443 0
DWIDTH 8 0
BBX 8 18 0 -2
BITMAP
08
fc
24
24
24
24
24
3c
28
20
20
20
20
20
20
20
00
00
ENDCHAR
STARTCHAR 0058
ENCODING 88
SWIDTH 443 0
DWIDTH 8 0
BBX 8 18 0 -2
BITMAP
00
10
10
10
fe
20
20
3e
02
02
02
04
04
04
08
08
00
00
ENDCHAR
STARTCHAR 0059
ENCODING 89
SWIDTH 443 0
DWIDTH 8 0
BBX 8 18 0 -2
BITMAP
00
00
10
10
10
10
10
20
20
28
24
44
4e
72
c2
00
00
00
ENDCHAR
STARTCHAR 005a
ENCODING 90
SWIDTH 443 0
DWIDTH 8 0
BBX 8 18 0 -2
BITMAP
00
02
82
46
24
28
10
10
10
10
10
10
10
10
10
10
00
00
ENDCHAR
STARTCHAR 005b
ENCODING 91
SWIDTH 443 0
DWIDTH 8 0
BBX 8 18 0 -2
BITMAP
00
fe
10
10
10
10
70
40
80
80
80
80
80
80
44
38
00
00
ENDCHAR
STARTCHAR 005c
ENCODING 92
SWIDTH 443 0
DWIDTH 8 0
BBX 8 18 0 -2
BITMAP
00
10
10
10
10
fe
10
10
70
80
80
80
80
80
4c
38
00
00
ENDCHAR
STARTCHAR 005d
ENCODING 93
SWIDTH 443 0
DWIDTH 8 0
BBX 8 18 0 -2
BITMAP
00
44
44
44
44
46
7c
c8
48
48
50
50
40
40
3e
00
00
00
ENDCHAR
STARTCHAR 005e
ENCODING 94
SWIDTH 443 0
DWIDTH 8 0
BBX 8 18 0 -2
BITMAP
00
00
1e
f8
48
48
48
4e
72
12
12
12
24
24
24
44
00
00
ENDCHAR
STARTCHAR 005f
ENCODING 95
SWIDTH 443 0
DWIDTH 8 0
BBX 8 18 0 -2
BITMAP
00
f0
10
10
10
10
10
10
10
10
08
08
08
06
04
00
00
00
ENDCHAR
STARTCHAR 0060
ENCODING 96
SWIDTH 443 0
DWIDTH 8 0
BBX 8 18 0 -2
BITMAP
00
10
10
10
32
22
46
4c
f8
10
20
40
46
82
fe
02
00
00
ENDCHAR
STARTCHAR 0061
ENCODING 97
SWIDTH 443 0
DWIDTH 8 0
BBX 8 18 0 -2
BITMAP
00
7e
02
02
02
22
12
0a
0e
04
0e
0a
12
20
40
80
00
00
ENDCHAR
STARTCHAR 0062
ENCODING 98
SWIDTH 443 0
DWIDTH 8 0
BBX 8 18 0 -2
BITMAP
00
fc
04
44
44
48
48
7e
02
02
02
04
04
04
04
08
00
00
ENDCHAR
STARTCHAR 0063
ENCODING 99
SWIDTH 443 0
DWIDTH 8 0
BBX 8 18 0 -2
BITMAP
00
40
40
40
40
80
80
80
82
fe
02
02
04
04
04
00
00
00
ENDCHAR
STARTCHAR 0064
ENCODING 100
SWIDTH 443 0
DWIDTH 8 0
BBX 8 18 0 -2
BITMAP
00
20
20
20
3e
f0
30
30
30
30
50
50
50
50
4e
80
00
00
ENDCHAR
STARTCHAR 0065
ENCODING 101
SWIDTH 443 0
DWIDTH 8 0
BBX 8 18 0 -2
BITMAP
00
10
10
10
10
10
10
20
20
20
20
40
40
44
9e
e0
00
00
ENDCHAR
STARTCHAR 0066
ENCODING 102
SWIDTH 443 0
DWIDTH 8 0
BBX 8 18 0 -2
BITMAP
00
28
28
28
28
28
28
28
28
28
28
28
48
4a
4e
80
00
00
ENDCHAR
STARTCHAR 0067
ENCODING 103
SWIDTH 443 0
DWIDTH 8 0
BBX 8 18 0 -2
BITMAP
00
10
18
10
10
10
10
10
10
10
10
10
10
10
10
10
00
00
ENDCHAR
STARTCHAR 0068
ENCODING 104
SWIDTH 443 0
DWIDTH 8 0
BBX 8 18 0 -2
BITMAP
00
04
06
04
44
24
14
18
08
14
16
22
22
40
80
00
00
00
ENDCHAR
STARTCHAR 0069
ENCODING 105
SWIDTH 443 0
DWIDTH 8 0
BBX 8 18 0 -2
BITMAP
00
02
42
42
42
42
42
42
82
82
8e
f2
82
00
00
00
00
00
ENDCHAR
ENDFONT
